<svg width="16" height="19" viewBox="0 0 16 19" fill="none" xmlns="http://www.w3.org/2000/svg">
<path d="M10.2705 0.686035H10.4834L10.6962 0.810142L10.8736 0.969672L10.9978 1.16471L11.2461 1.64334L11.3348 1.92702L11.4767 3.04385L11.5299 3.45164L11.5831 4.05438V4.49759L11.5477 4.90533L11.5299 5.08261L11.5477 5.17125L11.6896 5.11808L12.275 4.81669L13.2683 4.3203L13.6763 4.12531L14.102 3.94802L14.4745 3.82392L14.6518 3.79068C14.7227 3.77742 14.7946 3.77074 14.8667 3.77074H14.9261C15.003 3.77074 15.0795 3.78221 15.153 3.80484C15.2323 3.82922 15.3072 3.86623 15.3747 3.9144L15.5081 4.00971C15.5167 4.01583 15.5248 4.02268 15.5323 4.03012L15.6304 4.12817C15.6637 4.1615 15.6915 4.19996 15.7125 4.2421L15.721 4.25904C15.7296 4.2762 15.7363 4.29421 15.741 4.31282C15.7505 4.35051 15.7515 4.38986 15.744 4.42802L15.7372 4.46302C15.735 4.47418 15.7313 4.48501 15.7262 4.49519L15.6741 4.59953C15.6431 4.66139 15.6057 4.71983 15.5625 4.77382L15.5565 4.78122L15.3259 5.01168L15.0776 5.20672L14.7406 5.45489L14.439 5.64989L14.102 5.86263L13.8359 6.03992L13.6763 6.16402L13.4064 6.34302L13.1581 6.50255L12.9135 6.66041L12.5765 6.87316L12.1508 7.12133L11.7605 7.36954L11.3526 7.63547C11.1018 7.80723 10.896 8.03675 10.7525 8.30464L10.5608 8.66242L10.3968 9.2092L10.2874 9.59196L10.239 9.76625C10.2364 9.77575 10.235 9.78554 10.235 9.79543C10.235 9.83996 10.2622 9.88005 10.3035 9.8966L10.4124 9.94011L10.5766 9.99483C10.6089 10.0056 10.6396 10.0206 10.6679 10.0394C10.71 10.0675 10.7461 10.1036 10.7742 10.1457L10.8001 10.1845C10.8254 10.2224 10.8477 10.2623 10.8667 10.3038C10.8996 10.3758 10.9241 10.4513 10.9396 10.529L10.9709 10.6855L11.0256 10.9316L11.0687 11.2697C11.0806 11.3759 11.0845 11.4829 11.0806 11.5897L11.0687 11.9158L10.9801 12.6348L10.9436 12.9001L10.9387 12.9542C10.9238 13.1182 10.9254 13.2832 10.9436 13.4468L10.9706 13.5677C10.9769 13.5955 10.9886 13.6218 11.0051 13.6449L11.0151 13.6588C11.0488 13.706 11.1031 13.7339 11.161 13.7339C11.2044 13.7339 11.2464 13.7182 11.2791 13.6896L11.3703 13.6098L11.388 13.5921C11.4588 13.5214 11.5224 13.4438 11.578 13.3605C11.6404 13.2669 11.6948 13.1681 11.7406 13.0652L11.8847 12.7411L12.1465 12.1892L12.3636 11.7129L12.4878 11.447L12.5942 11.1811L12.7007 10.8797L12.8426 10.596L12.9135 10.4897L13.0732 10.3124L13.1441 10.2415L13.286 10.1706L13.4634 10.1529L13.6408 10.206L13.8536 10.3301L14.0488 10.5251L14.2262 10.7911L14.2744 10.8875C14.3013 10.9411 14.3208 10.9982 14.3326 11.057L14.3358 11.0752C14.3573 11.198 14.3681 11.3224 14.3681 11.447V11.6775L14.3326 12.1072L14.2794 12.3689L14.2084 12.688L14.173 12.8298L14.102 13.078L14.0133 13.3439L13.9601 13.5212L13.8714 13.8048L13.7117 14.443L13.6763 14.6026L13.6231 15.0635V15.2763L13.6807 15.7803C13.6895 15.8577 13.7075 15.9337 13.7341 16.0069C13.7547 16.0634 13.7802 16.1178 13.8107 16.1696L13.8689 16.2691L13.9956 16.4286L14.0672 16.5121C14.0904 16.5391 14.1156 16.5643 14.1426 16.5875C14.198 16.6349 14.2604 16.6733 14.3277 16.7013L14.3688 16.7185C14.4147 16.7375 14.465 16.7434 14.5141 16.7352C14.5348 16.7317 14.555 16.7249 14.5735 16.715L14.8115 16.5882L14.9889 16.464L15.255 16.2691L15.4273 16.1535L15.5061 16.1141C15.5614 16.0865 15.6242 16.078 15.6847 16.0901C15.7134 16.0959 15.7407 16.1067 15.7654 16.1223L15.8178 16.1551C15.8444 16.1718 15.8671 16.1939 15.8845 16.22L15.9459 16.3121C15.9583 16.3306 15.9687 16.3504 15.977 16.371C15.9922 16.4091 16 16.4496 16 16.4906V16.5657C16 16.6277 15.9919 16.6894 15.976 16.7492L15.929 16.925L15.8444 17.1683C15.8063 17.2777 15.7585 17.3835 15.7017 17.4845C15.6524 17.5721 15.5935 17.6541 15.5262 17.7289L15.4678 17.7937L15.3917 17.8697C15.3479 17.9135 15.3011 17.9541 15.2516 17.9912L15.2376 18.0017C15.155 18.0637 15.0645 18.1144 14.9686 18.1528C14.8877 18.1852 14.8042 18.2107 14.7191 18.2292L14.439 18.2901L14.3385 18.3068C14.2637 18.3192 14.1881 18.3255 14.1123 18.3255H14.1046C13.9852 18.3255 13.8663 18.3093 13.7512 18.2774C13.6543 18.2504 13.5607 18.2125 13.4724 18.1644L13.4102 18.1305L13.3221 18.0644C13.239 18.0022 13.1605 17.9341 13.0871 17.8608C12.9834 17.7571 12.8876 17.6457 12.8005 17.5277L12.6829 17.3682L12.4879 17.0271C12.3816 16.8412 12.2911 16.6466 12.2173 16.4456L12.133 16.2159L12.0798 16.0031L12.0444 15.8258L12.029 15.6957C12.0156 15.5818 11.9909 15.4696 11.9552 15.3606C11.9372 15.3175 11.8838 15.3022 11.8459 15.3293L11.7638 15.388L11.5451 15.5793L11.2284 15.8081L10.9436 15.9677L10.7846 16.0296C10.6793 16.0707 10.5673 16.0918 10.4542 16.0918C10.3561 16.0918 10.2585 16.0759 10.1654 16.0447L10.1314 16.0333C10.0715 16.0132 10.0133 15.9882 9.9576 15.9583L9.80933 15.879L9.70289 15.8081C9.6323 15.7493 9.57057 15.6806 9.51957 15.6042L9.48107 15.5465C9.43979 15.4846 9.40342 15.4196 9.37219 15.3521L9.31264 15.2231L9.24167 14.9926C9.21805 14.8864 9.20278 14.7785 9.19602 14.67L9.18849 14.5494L9.2062 14.1594L9.31264 13.4503L9.34811 13.078L9.36291 12.3975C9.36428 12.3343 9.29985 12.2907 9.24167 12.3157L9.13917 12.3806L9.02982 12.4626L8.9751 12.5173L8.94015 12.5639L8.72907 12.9001L8 14.0353L7.69844 14.4962L7.52107 14.7799L7.43239 14.904L7.32595 15.1167L7.11307 15.4358L6.88248 15.7727L6.74058 15.95L6.54545 16.1627L6.3858 16.3399L6.15521 16.5527L6.06652 16.6413L5.8714 16.8009L5.65852 16.9604L5.48116 17.12L5.28603 17.2973L5.05544 17.4568L4.6652 17.6873L4.29266 17.8646L3.63636 18.095L3.35256 18.1837L3.12197 18.2546L2.87363 18.3078L2.3947 18.3432L2.28826 18.3609H2.05767L1.75611 18.3078L1.49001 18.2368L1.01108 18.0596L0.620834 17.8291L0.407999 17.6696L0.283808 17.5632L0.159658 17.3682L0.0709731 17.1554L0.0177544 16.9604L0 16.7654L0.0354657 16.3577L0.141903 16.0031L0.283808 15.6131L0.443465 15.2763L0.638588 14.9749L0.922396 14.5494L1.17074 14.2126L1.38357 13.9289L1.52552 13.7517L1.72064 13.5034L1.91572 13.2907L2.03992 13.1489L2.21728 12.9539L2.37694 12.7589L2.5366 12.5816L2.69621 12.3866L2.94456 12.1206L3.06875 11.9788L3.61861 11.4293L3.76051 11.3052L3.99114 11.0925L4.15076 10.9329L4.29266 10.8088L4.47008 10.6492L4.6652 10.4897L4.86032 10.3124L5.05544 10.1529L5.25057 9.97558L5.39247 9.85147L5.56984 9.6919L5.81818 9.47919L5.99555 9.31962L6.17296 9.1778L6.4213 8.96505L6.59867 8.82323L6.88248 8.59277L7.05985 8.4332L7.29048 8.27367L7.36064 8.21925C7.89121 7.80805 8.36821 7.33198 8.78049 6.80223L8.99337 6.44766L9.17074 6.16402L9.18366 6.13934C9.30494 5.90798 9.40736 5.66721 9.49001 5.41943L9.59645 4.90533L9.64967 4.55076L9.72064 3.71752V3.5689C9.72064 3.21981 9.68496 2.87162 9.6142 2.52976L9.56098 2.19294V1.90926L9.59645 1.59016L9.64967 1.37742L9.73835 1.16471L9.86254 0.95196L10.0045 0.810142L10.2173 0.703746L10.2705 0.686035ZM8.42571 9.44373L8.23059 9.51461L7.96454 9.6919L7.62751 9.94011L7.4501 10.0819L7.25497 10.206L7.04214 10.3833L6.50999 10.7911L6.31487 10.9506L6.06652 11.1633L5.88916 11.3229L5.64081 11.5534L5.44569 11.7129L5.19735 11.9257L5.01994 12.0675L4.59423 12.493L4.47008 12.6348L4.31042 12.8121L4.18627 12.9539L4.11529 13.0248V13.0602H4.07983L3.92017 13.2553L3.67183 13.5744L3.47671 13.858L3.28158 14.1594L3.08646 14.514L2.92685 14.8685L2.80265 15.294L2.74943 15.5776V15.879L2.82041 16.1627L2.90909 16.2691L3.03324 16.3222L3.24612 16.3577L3.42349 16.3399L3.67183 16.2513L4.00886 16.1095L4.2572 15.9322L4.48779 15.7372L4.73613 15.5422L4.86032 15.4181L5.00223 15.294L5.23281 15.099L5.37472 14.9749L5.49891 14.8331L5.64081 14.6735L6.03106 14.1771L6.26165 13.8757L6.45677 13.5921L6.63414 13.3262L6.90024 12.9184L7.0776 12.6348L7.30819 12.3157L7.53882 11.9611L7.69844 11.6952L7.8581 11.3583L8.07097 10.8442L8.23059 10.401L8.44347 9.58554L8.46122 9.44373H8.42571Z" fill="#68D6DB"/>
<path d="M7.68016 0.966608C7.70514 0.960619 7.73077 0.957709 7.75644 0.957923L7.9661 0.959891L8.16213 0.97204C8.25312 0.977687 8.33924 1.01508 8.40551 1.07767L8.49573 1.23082L8.54809 1.31993L8.59947 1.51544L8.68551 1.79989L8.76923 2.33255L8.78527 2.51001L8.77398 3.71544L8.69736 4.31754L8.58711 4.72425L8.34955 5.46663L8.24029 5.76699L8.11348 6.04947L7.91537 6.36674L7.69984 6.64836L7.48465 6.89456L6.96512 7.43929L6.85787 7.52691L6.76833 7.61474L6.57175 7.77243L6.32208 7.91193L6.05535 7.98034L5.73607 7.97735L5.61256 7.90526L5.54245 7.81598L5.49008 7.72682L5.47319 7.63801L5.47485 7.46077L5.54809 7.21324L5.69269 6.93093L5.83708 6.66637L5.94497 6.50783L6.10728 6.22569L6.34052 5.94419L6.52024 5.69769L6.66446 5.45084L6.81004 5.06214L6.97697 4.28366L7.0002 3.6988L7.00272 3.43292L6.99015 2.88318L6.94027 2.52815L6.85488 2.17277L6.82916 1.97983C6.8242 1.94282 6.82193 1.90552 6.82228 1.86821L6.82266 1.82603C6.82326 1.76199 6.83507 1.69859 6.85753 1.63861L6.87177 1.60058C6.88807 1.55698 6.90959 1.51544 6.93582 1.47694C6.95742 1.4452 6.9821 1.41568 7.00953 1.38877L7.09363 1.30629L7.29813 1.1649C7.36405 1.11929 7.43331 1.07874 7.50536 1.04357L7.61565 0.989752C7.63627 0.979698 7.65787 0.971955 7.68016 0.966608Z" fill="#68D6DB"/>
</svg>
