<svg width="32" height="37" viewBox="0 0 32 37" fill="none" xmlns="http://www.w3.org/2000/svg">
<path d="M20.541 0.848633H20.9668L21.3924 1.09685L21.7473 1.41591L21.9955 1.80598L22.4922 2.76324L22.6696 3.3306L22.9534 5.56427L23.0599 6.37984L23.1663 7.58532V8.47173L23.0954 9.28722L23.0599 9.64179L23.0954 9.81907L23.3792 9.71272L24.5499 9.10994L26.5366 8.11717L27.3526 7.72718L28.204 7.37261L28.949 7.1244L29.3035 7.05792C29.4453 7.03139 29.5892 7.01805 29.7335 7.01805H29.8522C30.0061 7.01805 30.159 7.04098 30.3061 7.08624C30.4646 7.13501 30.6143 7.20902 30.7493 7.30536L31.0163 7.49599C31.0335 7.50823 31.0497 7.52192 31.0646 7.5368L31.2608 7.73291C31.3275 7.79956 31.3829 7.87648 31.425 7.96076L31.4421 7.99464C31.4592 8.02895 31.4726 8.06497 31.4819 8.10219C31.5009 8.17757 31.503 8.25629 31.4881 8.33261L31.4744 8.4026C31.47 8.42493 31.4627 8.44658 31.4525 8.46694L31.3481 8.67563C31.2862 8.79935 31.2114 8.91623 31.125 9.02421L31.1131 9.03901L30.6519 9.49993L30.1552 9.89L29.4812 10.3863L28.878 10.7763L28.204 11.2018L27.6719 11.5564L27.3526 11.8046L26.8128 12.1626L26.3162 12.4817L25.8271 12.7974L25.153 13.2229L24.3015 13.7192L23.521 14.2156L22.7051 14.7475C22.2036 15.091 21.792 15.5501 21.5049 16.0859L21.1216 16.8014L20.7936 17.895L20.5749 18.6605L20.478 19.0091C20.4727 19.0281 20.4701 19.0476 20.4701 19.0674C20.4701 19.1565 20.5243 19.2367 20.6071 19.2698L20.8248 19.3568L21.1533 19.4662C21.2178 19.4877 21.2792 19.5177 21.3359 19.5555C21.4201 19.6116 21.4923 19.6837 21.5484 19.7679L21.6003 19.8455C21.6508 19.9214 21.6953 20.0012 21.7333 20.0841C21.7992 20.2281 21.8481 20.3792 21.8792 20.5345L21.9418 20.8476L22.0512 21.3398L22.1375 22.0159C22.1611 22.2284 22.1691 22.4423 22.1613 22.6559L22.1375 23.3082L21.9601 24.7461L21.8871 25.2767L21.8773 25.385C21.8475 25.713 21.8508 26.043 21.8871 26.3703L21.9412 26.612C21.9537 26.6676 21.9772 26.7201 22.0103 26.7664L22.0302 26.7942C22.0975 26.8885 22.2062 26.9444 22.3221 26.9444C22.4089 26.9444 22.4928 26.9129 22.5582 26.8557L22.7405 26.6962L22.776 26.6608C22.9176 26.5193 23.0449 26.3641 23.1559 26.1976C23.2809 26.0103 23.3897 25.8127 23.4812 25.6071L23.7694 24.9588L24.293 23.855L24.7273 22.9024L24.9756 22.3705L25.1885 21.8387L25.4013 21.236L25.6851 20.6686L25.8271 20.4559L26.1463 20.1013L26.2883 19.9596L26.5721 19.8177L26.9268 19.7823L27.2816 19.8886L27.7073 20.1368L28.0975 20.5268L28.4524 21.0587L28.5488 21.2515C28.6025 21.3588 28.6416 21.4729 28.6652 21.5905L28.6716 21.6269C28.7145 21.8725 28.7362 22.1213 28.7362 22.3705V22.8315L28.6652 23.691L28.5587 24.2143L28.4169 24.8525L28.3459 25.1361L28.204 25.6325L28.0266 26.1644L27.9202 26.519L27.7428 27.0862L27.4235 28.3626L27.3526 28.6818L27.2461 29.6036V30.0291L27.3614 31.0371C27.3791 31.1919 27.4149 31.344 27.4682 31.4903C27.5093 31.6033 27.5605 31.7122 27.6213 31.8158L27.7378 32.0147L27.9911 32.3337L28.1343 32.5007C28.1807 32.5548 28.2312 32.6052 28.2853 32.6516C28.396 32.7464 28.5209 32.8232 28.6554 32.8793L28.7375 32.9135C28.8293 32.9516 28.9301 32.9633 29.0282 32.9469C29.0697 32.94 29.1099 32.9264 29.147 32.9066L29.6231 32.6529L29.9778 32.4047L30.5099 32.0147L30.8546 31.7836L31.0123 31.7047C31.1227 31.6495 31.2484 31.6326 31.3695 31.6568C31.4267 31.6683 31.4814 31.69 31.5309 31.7211L31.6355 31.7867C31.6887 31.8201 31.7342 31.8643 31.769 31.9165L31.8919 32.1007C31.9166 32.1378 31.9374 32.1773 31.954 32.2186C31.9843 32.2947 32 32.3758 32 32.4577V32.608C32 32.7319 31.9838 32.8553 31.9519 32.975L31.8581 33.3265L31.6887 33.8132C31.6126 34.0319 31.5171 34.2435 31.4035 34.4455C31.3048 34.6208 31.1871 34.7848 31.0524 34.9343L30.9357 35.0639L30.7834 35.216C30.6959 35.3036 30.6022 35.3848 30.5031 35.459L30.4753 35.4799C30.3099 35.6039 30.1289 35.7054 29.9371 35.7822C29.7753 35.8469 29.6085 35.898 29.4382 35.9349L28.878 36.0567L28.677 36.0901C28.5275 36.115 28.3761 36.1275 28.2245 36.1275H28.2091C27.9703 36.1275 27.7325 36.0952 27.5025 36.0313C27.3086 35.9774 27.1215 35.9016 26.9448 35.8053L26.8204 35.7375L26.6441 35.6054C26.478 35.4809 26.321 35.3448 26.1742 35.1981C25.9667 34.9907 25.7751 34.768 25.601 34.532L25.3658 34.2129L24.9758 33.5307C24.7632 33.1589 24.5822 32.7698 24.4347 32.3677L24.2661 31.9083L24.1597 31.4828L24.0887 31.1282L24.058 30.868C24.0312 30.6402 23.9818 30.4157 23.9103 30.1979C23.8745 30.1115 23.7677 30.081 23.6917 30.1352L23.5275 30.2525L23.0901 30.6352L22.4567 31.0927L21.8871 31.4119L21.5692 31.5359C21.3586 31.6179 21.1345 31.6601 20.9085 31.6601C20.7121 31.6601 20.5171 31.6283 20.3308 31.5659L20.2628 31.5431C20.143 31.503 20.0267 31.4529 19.9152 31.3932L19.6187 31.2346L19.4058 31.0927C19.2646 30.9752 19.1411 30.8379 19.0391 30.685L18.9621 30.5696C18.8796 30.4458 18.8068 30.3158 18.7444 30.1807L18.6253 29.9227L18.4833 29.4618C18.4361 29.2494 18.4056 29.0336 18.392 28.8165L18.377 28.5754L18.4124 27.7954L18.6253 26.3771L18.6962 25.6325L18.7258 24.2716C18.7286 24.1451 18.5997 24.058 18.4833 24.1079L18.2783 24.2378L18.0596 24.4018L17.9502 24.5112L17.8803 24.6043L17.4581 25.2767L16 27.5472L15.3969 28.469L15.0421 29.0364L14.8648 29.2845L14.6519 29.71L14.2261 30.3482L13.765 31.0219L13.4812 31.3765L13.0909 31.8019L12.7716 32.1564L12.3104 32.5819L12.133 32.7592L11.7428 33.0784L11.317 33.3974L10.9623 33.7166L10.5721 34.0711L10.1109 34.3902L9.3304 34.8511L8.58533 35.2057L7.27273 35.6666L6.70511 35.8439L6.24394 35.9857L5.74725 36.0921L4.78939 36.163L4.57651 36.1985H4.11534L3.51221 36.0921L2.98002 35.9502L2.02216 35.5958L1.24167 35.1348L0.815999 34.8157L0.567615 34.6029L0.319315 34.2129L0.141946 33.7874L0.0355088 33.3974L0 33.0074L0.0709313 32.1919L0.283806 31.4828L0.567615 30.7028L0.88693 30.0291L1.27718 29.4263L1.84479 28.5754L2.34148 27.9017L2.76714 27.3345L3.05104 26.9799L3.44128 26.4835L3.83144 26.058L4.07983 25.7743L4.43457 25.3843L4.75388 24.9943L5.0732 24.6398L5.39243 24.2497L5.88911 23.7179L6.1375 23.4342L7.23722 22.3351L7.52103 22.0869L7.98229 21.6615L8.30152 21.3423L8.58533 21.0941L8.94015 20.7751L9.3304 20.4559L9.72064 20.1013L10.1109 19.7823L10.5011 19.4277L10.7849 19.1795L11.1397 18.8604L11.6364 18.4349L11.9911 18.1158L12.3459 17.8322L12.8426 17.4067L13.1973 17.123L13.765 16.6621L14.1197 16.343L14.581 16.0239L14.7213 15.9151C15.7824 15.0927 16.7364 14.1405 17.561 13.081L17.9867 12.3719L18.3415 11.8046L18.3673 11.7552C18.6099 11.2925 18.8147 10.811 18.98 10.3154L19.1929 9.28722L19.2993 8.57809L19.4413 6.91161V6.61436C19.4413 5.91618 19.3699 5.2198 19.2284 4.53608L19.122 3.86245V3.29509L19.1929 2.65689L19.2993 2.23139L19.4767 1.80598L19.7251 1.38048L20.0089 1.09685L20.4346 0.884055L20.541 0.848633ZM16.8514 18.364L16.4612 18.5058L15.9291 18.8604L15.255 19.3568L14.9002 19.6404L14.5099 19.8886L14.0843 20.2432L13.02 21.0587L12.6297 21.3777L12.133 21.8032L11.7783 22.1224L11.2816 22.5833L10.8914 22.9024L10.3947 23.3279L10.0399 23.6115L9.18845 24.4625L8.94015 24.7461L8.62084 25.1007L8.37254 25.3843L8.23059 25.5262V25.597H8.15966L7.84034 25.9871L7.34366 26.6253L6.95341 27.1926L6.56317 27.7954L6.17292 28.5045L5.85369 29.2136L5.6053 30.0645L5.49887 30.6318V31.2346L5.64081 31.8019L5.81818 32.0147L6.06648 32.121L6.49223 32.1919L6.84697 32.1564L7.34366 31.9792L8.01771 31.6955L8.5144 31.341L8.97557 30.951L9.47226 30.561L9.72064 30.3128L10.0045 30.0645L10.4656 29.6746L10.7494 29.4263L10.9978 29.1427L11.2816 28.8236L12.0621 27.8308L12.5233 27.228L12.9135 26.6607L13.2683 26.1289L13.8005 25.3134L14.1552 24.7461L14.6164 24.1079L15.0776 23.3988L15.3969 22.8669L15.7162 22.1932L16.1419 21.165L16.4612 20.2786L16.8869 18.6476L16.9224 18.364H16.8514Z" fill="#68D6DB"/>
<path d="M15.3603 1.40978C15.4103 1.3978 15.4615 1.39198 15.5129 1.39241L15.9322 1.39634L16.3243 1.42064C16.5062 1.43194 16.6785 1.50672 16.811 1.63189L16.9915 1.93821L17.0962 2.11643L17.1989 2.50744L17.371 3.07634L17.5385 4.14167L17.5705 4.49658L17.548 6.90745L17.3947 8.11164L17.1742 8.92507L16.6991 10.4098L16.4806 11.0105L16.227 11.5755L15.8307 12.21L15.3997 12.7733L14.9693 13.2657L13.9302 14.3551L13.7157 14.5304L13.5367 14.706L13.1435 15.0214L12.6442 15.3004L12.1107 15.4372L11.4721 15.4313L11.2251 15.2871L11.0849 15.1085L10.9802 14.9302L10.9464 14.7526L10.9497 14.3981L11.0962 13.903L11.3854 13.3384L11.6742 12.8093L11.8899 12.4922L12.2146 11.9279L12.681 11.3649L13.0405 10.8719L13.3289 10.3782L13.6201 9.60084L13.9539 8.04387L14.0004 6.87416L14.0054 6.3424L13.9803 5.24293L13.8805 4.53286L13.7098 3.8221L13.6583 3.43622C13.6484 3.36221 13.6439 3.28759 13.6446 3.21299L13.6453 3.12862C13.6465 3.00054 13.6701 2.87373 13.7151 2.75378L13.7435 2.67771C13.7761 2.59053 13.8192 2.50745 13.8716 2.43044C13.9148 2.36695 13.9642 2.30792 14.0191 2.2541L14.1873 2.08914L14.5963 1.80635C14.7281 1.71515 14.8666 1.63403 15.0107 1.5637L15.2313 1.45607C15.2725 1.43596 15.3157 1.42047 15.3603 1.40978Z" fill="#68D6DB"/>
</svg>
